<svg width="250" height="250" viewBox="0 0 250 250" fill="none" xmlns="http://www.w3.org/2000/svg">
<path d="M0 125C0 55.9644 55.9644 0 125 0C194.036 0 250 55.9644 250 125C250 194.036 194.036 250 125 250C55.9644 250 0 194.036 0 125Z" fill="#0B549E"/>
<path fill-rule="evenodd" clip-rule="evenodd" d="M184.14 195.33C187.78 195.351 191.471 195.373 194.998 195.301L195 54.6494L55.0005 54.6507L55 195.307L179.023 195.31C180.702 195.31 182.415 195.32 184.14 195.33ZM144.065 56.169C146.764 56.18 149.454 56.1911 152.12 56.191L193.097 56.2001L193.094 193.762C186.801 193.862 180.328 193.83 173.907 193.798C170.778 193.783 167.661 193.767 164.583 193.767V187.885C157.785 187.155 151.389 184.959 145.873 180.881L145.783 180.81C139.973 176.278 136.222 170.542 135.317 163.128C134.478 155.679 136.602 148.199 141.23 142.303C147.138 134.79 155.338 131.535 164.581 130.446L164.583 122.402C153.011 123.498 141.648 128.488 134.412 137.815C131.068 142.124 128.326 147.846 127.493 153.267C127.365 151.005 127.398 148.016 127.428 145.301C127.44 144.189 127.452 143.123 127.452 142.171V56.1969C132.926 56.1234 138.513 56.1463 144.065 56.169ZM127.439 174.377C127.424 171.69 127.409 168.956 127.47 166.346C127.578 166.481 127.896 167.727 128.124 168.618C128.223 169.004 128.305 169.323 128.345 169.456C131.412 179.675 139.161 187.28 148.882 191.467C150.162 192.013 151.468 192.492 152.795 192.905C153.045 192.982 153.326 193.062 153.616 193.144C154.246 193.323 154.921 193.515 155.429 193.718L155.51 193.751C155.185 193.8 154.073 193.788 153.362 193.78C153.171 193.778 153.01 193.776 152.9 193.776L147.501 193.766H127.459L127.452 177.62C127.451 176.554 127.445 175.469 127.439 174.377ZM71.6394 174.296C71.6491 172.197 71.6588 170.107 71.6587 168.044L71.6639 130.95H72.0682C90.1102 131.009 103.221 140.372 103.035 159.452C102.958 167.3 100.52 173.728 94.8875 179.264C88.628 185.238 80.0758 187.227 71.6658 187.337C71.5987 183.066 71.6192 178.662 71.6394 174.296ZM109.525 147.565C104.616 130.462 88.1407 123.527 71.6596 122.878L71.6624 56.1923L110.613 56.1987L110.607 142.102L110.622 148.033C110.623 148.265 110.626 148.509 110.629 148.761C110.64 149.715 110.652 150.773 110.559 151.621C110.34 151.034 110.129 150.108 109.927 149.218C109.79 148.611 109.656 148.021 109.525 147.565ZM110.623 168.438C110.621 168.645 110.619 168.835 110.619 168.998L110.606 174.532L110.609 193.761C105.566 193.85 100.477 193.816 95.3836 193.782C90.1338 193.747 84.8791 193.712 79.6658 193.812L79.6597 193.785C79.7345 193.692 81.3361 193.317 82.5005 193.045C83.0152 192.924 83.4446 192.824 83.6187 192.777C87.6888 191.698 91.5817 190.036 95.1769 187.844C103.972 182.387 108.221 175.612 110.552 165.685C110.645 166.337 110.633 167.544 110.623 168.438Z" fill="white"/>
</svg>
